<svg width="375" height="193" viewBox="0 0 375 193" fill="none" xmlns="http://www.w3.org/2000/svg">
<path d="M92 192C118.333 185.667 180.648 162.095 190.5 134C200.352 105.905 157.645 104.5 153.5 122C147.624 146.809 190.5 159 220.5 154C259 147.583 282.333 119 301 96" stroke="#009477" stroke-dasharray="10 10"/>
<path d="M263.717 124H218.09C215.904 121.683 212.718 115.723 217.465 110.416C222.59 104.686 230.477 109.469 234.017 112.312C233.912 108.205 235.89 99.8019 244.634 99.0437C253.378 98.2856 257.23 107.573 258.063 112.312C260.353 109.679 265.653 106.329 269.65 109.109C273.648 111.889 273.086 119.85 263.717 124Z" fill="#05BD99"/>
<path d="M358.073 55.8887C362.718 69.0791 312.332 110.006 308.128 112.003C305.771 113.122 302.878 113.77 302.002 111.281C301.709 110.45 302.123 108.85 303.084 106.703L303.083 106.704L296.392 100.624C295.487 99.8007 295.425 98.2418 296.264 97.3098L296.826 96.685C297.844 95.5516 299.239 94.9861 300.641 95.1377L309.226 96.0671C311.321 92.8877 313.756 89.4436 316.37 85.9506L298.974 82.2544C297.598 81.9615 296.964 80.1231 297.786 78.8079L298.628 77.4611C300.03 75.2188 302.171 73.7367 304.542 73.3651L329.917 69.4015C335.923 62.7547 341.607 57.4649 345.434 55.6473C346.456 55.1617 347.491 54.7067 348.507 54.3186L342.841 61.1892L343.616 63.9364L352.325 53.2295C355.133 52.7113 357.153 53.2774 358.073 55.8887ZM338.191 91.9109L350.666 98.9784C351.426 99.41 352.347 99.2096 352.929 98.4896L353.859 97.3351C355.557 95.2301 355.899 92.1241 354.708 89.6298L349.943 79.6495C349.648 79.0319 348.928 78.894 348.467 79.3673L337.987 90.0983C337.478 90.6209 337.584 91.5668 338.191 91.9109Z" fill="#05BD99"/>
</svg>

