<svg width="375" height="193" viewBox="0 0 375 193" fill="none" xmlns="http://www.w3.org/2000/svg">
<path d="M92 192C118.333 185.667 180.648 162.095 190.5 134C200.352 105.905 157.645 104.5 153.5 122C147.624 146.809 190.5 159 220.5 154C259 147.583 282.333 119 301 96" stroke="#009477" stroke-dasharray="10 10"/>
<path d="M263.717 124H218.09C215.904 121.683 212.718 115.723 217.465 110.416C222.59 104.686 230.477 109.469 234.017 112.312C233.912 108.205 235.89 99.8019 244.634 99.0437C253.378 98.2856 257.23 107.573 258.063 112.312C260.353 109.679 265.653 106.329 269.65 109.109C273.648 111.889 273.086 119.85 263.717 124Z" fill="#05BD99"/>
<path d="M358.073 55.8887C362.718 69.0791 312.332 110.006 308.128 112.003C305.771 113.122 302.878 113.77 302.002 111.281C301.709 110.45 302.123 108.85 303.084 106.703L303.083 106.704L296.392 100.624C295.487 99.8007 295.425 98.2418 296.264 97.3098L296.826 96.685C297.844 95.5516 299.239 94.9861 300.641 95.1377L309.226 96.0671C311.321 92.8877 313.756 89.4436 316.37 85.9506L298.974 82.2544C297.598 81.9615 296.964 80.1231 297.786 78.8079L298.628 77.4611C300.03 75.2188 302.171 73.7367 304.542 73.3651L329.917 69.4015C335.923 62.7547 341.607 57.4649 345.434 55.6473C346.456 55.1617 347.491 54.7067 348.507 54.3186L342.841 61.1892L343.616 63.9364L352.325 53.2295C355.133 52.7113 357.153 53.2774 358.073 55.8887ZM338.191 91.9109L350.666 98.9784C351.426 99.41 352.347 99.2096 352.929 98.4896L353.859 97.3351C355.557 95.2301 355.899 92.1241 354.708 89.6298L349.943 79.6495C349.648 79.0319 348.928 78.894 348.467 79.3673L337.987 90.0983C337.478 90.6209 337.584 91.5668 338.191 91.9109Z" fill="#05BD99"/>
<path d="M35.908 25.2563C38.596 25.2563 40.1926 23.1543 40.1926 19.5947C40.1926 18.2544 39.9363 17.1265 39.4456 16.2549C38.7351 14.8999 37.512 14.1675 35.9666 14.1675C33.6668 14.1675 32.0408 15.7129 32.0408 17.8809C32.0408 19.917 33.5056 21.3965 35.5198 21.3965C36.7576 21.3965 37.761 20.8179 38.2591 19.8145H38.281C38.281 19.8145 38.3103 19.8145 38.3176 19.8145C38.3323 19.8145 38.3836 19.8145 38.3836 19.8145C38.3836 22.2314 37.468 23.6743 35.9226 23.6743C35.0144 23.6743 34.3113 23.1763 34.0696 22.3779H32.1873C32.5022 24.1138 33.9744 25.2563 35.908 25.2563ZM35.9739 19.895C34.7581 19.895 33.8938 19.0308 33.8938 17.8223C33.8938 16.6431 34.802 15.7422 35.9812 15.7422C37.1604 15.7422 38.0686 16.6577 38.0686 17.8516C38.0686 19.0308 37.1824 19.895 35.9739 19.895ZM43.3455 23.8794C44.0413 23.8794 44.5174 23.3813 44.5174 22.7222C44.5174 22.0557 44.0413 21.5649 43.3455 21.5649C42.657 21.5649 42.1736 22.0557 42.1736 22.7222C42.1736 23.3813 42.657 23.8794 43.3455 23.8794ZM43.3455 18.3862C44.0413 18.3862 44.5174 17.8955 44.5174 17.2363C44.5174 16.5698 44.0413 16.0791 43.3455 16.0791C42.657 16.0791 42.1736 16.5698 42.1736 17.2363C42.1736 17.8955 42.657 18.3862 43.3455 18.3862ZM51.6546 25H53.4637V23.0298H54.8919V21.4331H53.4637V14.4312H50.7977C48.93 17.2437 47.4432 19.5947 46.4911 21.3452V23.0298H51.6546V25ZM48.2416 21.3672C49.472 19.1992 50.5707 17.4634 51.5814 15.9692H51.6839V21.4771H48.2416V21.3672ZM59.0556 25H60.9452V14.4312H59.0629L56.3017 16.3647V18.1812L58.931 16.3354H59.0556V25Z" fill="white"/>
<path fill-rule="evenodd" clip-rule="evenodd" d="M354.41 13.1597C355.658 13.1597 356.111 13.2898 356.567 13.5337C357.024 13.7777 357.382 14.1361 357.626 14.5923C357.87 15.0485 358 15.5018 358 16.7495V21.0698C358 22.3176 357.87 22.7709 357.626 23.2271C357.382 23.6833 357.024 24.0416 356.567 24.2856C356.111 24.5296 355.658 24.6597 354.41 24.6597H339.59C338.342 24.6597 337.889 24.5296 337.433 24.2856C336.976 24.0416 336.618 23.6833 336.374 23.2271C336.13 22.7709 336 22.3176 336 21.0698V16.7495C336 15.5018 336.13 15.0485 336.374 14.5923C336.618 14.1361 336.976 13.7777 337.433 13.5337C337.889 13.2898 338.342 13.1597 339.59 13.1597H354.41ZM339.59 14.1597C338.603 14.1597 338.258 14.2264 337.904 14.4155C337.622 14.5663 337.407 14.7821 337.256 15.064C337.067 15.4178 337 15.763 337 16.7495V21.0698C337 22.0564 337.067 22.4016 337.256 22.7554C337.407 23.0374 337.622 23.253 337.904 23.4038C338.258 23.593 338.603 23.6597 339.59 23.6597H354.41C355.397 23.6597 355.742 23.593 356.096 23.4038C356.378 23.253 356.593 23.0374 356.744 22.7554C356.933 22.4016 357 22.0564 357 21.0698V16.7495C357 15.763 356.933 15.4178 356.744 15.064C356.593 14.7821 356.378 14.5663 356.096 14.4155C355.742 14.2264 355.397 14.1597 354.41 14.1597H339.59ZM359 16.8501C359.009 16.8547 360.5 17.6172 360.5 18.8501C360.5 20.0866 359 20.8501 359 20.8501V16.8501Z" fill="white" fill-opacity="0.36"/>
<rect x="338" y="15.0767" width="18" height="7.66667" rx="1.6" fill="white"/>
<path fill-rule="evenodd" clip-rule="evenodd" d="M295 20.2996C295.279 20.2996 295.418 20.2999 295.534 20.323C296.01 20.4177 296.382 20.7904 296.477 21.2664C296.5 21.3821 296.5 21.5214 296.5 21.7996V22.7996C296.5 23.0781 296.5 23.2179 296.477 23.3337C296.382 23.8098 296.01 24.1824 295.534 24.2771C295.418 24.3002 295.279 24.2996 295 24.2996C294.721 24.2996 294.582 24.3002 294.466 24.2771C293.99 24.1824 293.618 23.8098 293.523 23.3337C293.5 23.2179 293.5 23.0781 293.5 22.7996V21.7996C293.5 21.5214 293.5 21.3821 293.523 21.2664C293.618 20.7904 293.99 20.4177 294.466 20.323C294.582 20.2999 294.721 20.2996 295 20.2996ZM299.8 18.2996C300.079 18.2996 300.218 18.3 300.334 18.323C300.81 18.4177 301.183 18.7903 301.277 19.2664C301.3 19.3821 301.3 19.5215 301.3 19.7996V22.7996C301.3 23.078 301.3 23.2179 301.277 23.3337C301.183 23.8098 300.81 24.1824 300.334 24.2771C300.218 24.3001 300.078 24.2996 299.8 24.2996C299.521 24.2996 299.382 24.3002 299.266 24.2771C298.79 24.1823 298.418 23.8097 298.323 23.3337C298.3 23.2179 298.3 23.0781 298.3 22.7996V19.7996C298.3 19.5214 298.3 19.3821 298.323 19.2664C298.418 18.7904 298.79 18.4178 299.266 18.323C299.382 18.3 299.521 18.2996 299.8 18.2996ZM304.4 15.9998C304.679 15.9998 304.819 16.0002 304.935 16.0232C305.41 16.118 305.782 16.4899 305.877 16.9656C305.9 17.0815 305.9 17.2211 305.9 17.4998V22.7996C305.9 23.0781 305.9 23.2179 305.877 23.3337C305.782 23.8096 305.41 24.1823 304.935 24.2771C304.819 24.3002 304.679 24.2996 304.4 24.2996C304.122 24.2996 303.982 24.3001 303.866 24.2771C303.39 24.1824 303.018 23.8098 302.923 23.3337C302.9 23.2179 302.9 23.078 302.9 22.7996V17.4998C302.9 17.2211 302.9 17.0815 302.923 16.9656C303.018 16.4897 303.39 16.1179 303.866 16.0232C303.982 16.0002 304.122 15.9998 304.4 15.9998ZM309.1 13.6003C309.378 13.6003 309.518 13.5998 309.634 13.6228C310.11 13.7175 310.482 14.0901 310.577 14.5662C310.6 14.682 310.6 14.8218 310.6 15.1003V22.7996C310.6 23.078 310.6 23.2179 310.577 23.3337C310.482 23.8098 310.11 24.1824 309.634 24.2771C309.518 24.3001 309.378 24.2996 309.1 24.2996C308.821 24.2996 308.681 24.3002 308.565 24.2771C308.09 24.1823 307.718 23.8096 307.623 23.3337C307.6 23.2179 307.6 23.0781 307.6 22.7996V15.1003C307.6 14.8218 307.6 14.682 307.623 14.5662C307.718 14.0903 308.09 13.7176 308.565 13.6228C308.681 13.5998 308.821 13.6003 309.1 13.6003Z" fill="white"/>
<path fill-rule="evenodd" clip-rule="evenodd" d="M323.3 15.6964C325.535 15.6965 327.684 16.555 329.303 18.0946C329.425 18.2134 329.62 18.2119 329.74 18.0912L330.906 16.9148C330.967 16.8536 331.001 16.7706 331 16.6843C330.999 16.598 330.965 16.5155 330.903 16.455C326.653 12.3817 319.947 12.3817 315.697 16.455C315.636 16.5155 315.601 16.598 315.6 16.6843C315.599 16.7706 315.633 16.8535 315.694 16.9148L316.86 18.0912C316.98 18.2121 317.175 18.2136 317.297 18.0946C318.917 16.5549 321.066 15.6964 323.3 15.6964ZM323.3 19.5237C324.528 19.5237 325.712 19.98 326.622 20.804C326.745 20.921 326.939 20.9184 327.059 20.7983L328.223 19.6219C328.285 19.5602 328.319 19.4765 328.318 19.3895C328.317 19.3025 328.281 19.2195 328.219 19.1591C325.447 16.5813 321.156 16.5813 318.385 19.1591C318.322 19.2195 318.286 19.3025 318.286 19.3896C318.285 19.4766 318.319 19.5603 318.38 19.6219L319.544 20.7983C319.664 20.9184 319.858 20.921 319.981 20.804C320.891 19.9805 322.074 19.5243 323.3 19.5237ZM325.538 22.3313C325.6 22.2702 325.635 22.1861 325.633 22.0989C325.631 22.0117 325.593 21.929 325.529 21.8705C324.242 20.7826 322.359 20.7826 321.072 21.8705C321.008 21.929 320.97 22.0116 320.968 22.0988C320.966 22.1861 321 22.2702 321.063 22.3313L323.077 24.3639C323.136 24.4236 323.216 24.4572 323.3 24.4572C323.384 24.4572 323.465 24.4236 323.524 24.3639L325.538 22.3313Z" fill="white"/>
<rect x="32" y="59" width="56" height="56" rx="14" fill="white"/>
<path d="M60.1049 106C51.2262 106 44 98.7776 44 89.9037V70.9014C44 69.299 45.2996 68 46.903 68C48.5063 68 49.806 69.299 49.806 70.9014V89.9037C49.806 95.5771 54.424 100.197 60.1049 100.197C65.7858 100.197 70.4038 95.5816 70.4038 89.9037C70.4038 84.2972 65.893 79.7218 60.3059 79.6147L60.3014 79.9718C60.2746 81.5743 58.9482 82.8643 57.3538 82.8242C55.7504 82.7974 54.4731 81.4806 54.4999 79.8781L54.549 76.932C54.5714 75.5705 55.5361 74.41 56.8714 74.1377C57.9344 73.9189 59.0241 73.8118 60.1138 73.8118C68.9925 73.8118 76.2188 81.0342 76.2188 89.9081C76.2054 98.7776 68.9836 106 60.1049 106Z" fill="#00CEA6"/>
<path d="M64.5621 89.8189C65.6523 89.8189 66.5361 88.9355 66.5361 87.8459C66.5361 86.7562 65.6523 85.8729 64.5621 85.8729C63.4719 85.8729 62.5881 86.7562 62.5881 87.8459C62.5881 88.9355 63.4719 89.8189 64.5621 89.8189Z" fill="#00CEA6"/>
<path d="M55.478 89.8189C56.5682 89.8189 57.452 88.9355 57.452 87.8459C57.452 86.7562 56.5682 85.8729 55.478 85.8729C54.3877 85.8729 53.5039 86.7562 53.5039 87.8459C53.5039 88.9355 54.3877 89.8189 55.478 89.8189Z" fill="#00CEA6"/>
</svg>
